<svg xmlns="http://www.w3.org/2000/svg" viewBox="0 0 512 512">
  <rect width="512" height="512" rx="96" fill="#16a34a"/>
  <path d="M256 120c-70 0-130 58-130 150s58 170 130 170 130-78 130-170-60-150-130-150z" fill="#ecfdf5"/>
  <path d="M256 90c20-30 55-40 80-30-5 30-30 55-60 60-10-12-15-20-20-30z" fill="#166534"/>
  <circle cx="215" cy="250" r="14" fill="#16a34a"/>
  <circle cx="300" cy="250" r="14" fill="#16a34a"/>
  <path d="M210 300c15 25 40 40 46 40s31-15 46-40" stroke="#16a34a" stroke-width="10" fill="none" stroke-linecap="round"/>
</svg>
